<svg width="200" height="250" viewBox="0 0 200 250" fill="none" xmlns="http://www.w3.org/2000/svg">
  <ellipse cx="100" cy="100" rx="50" ry="45" fill="#D4A574"/>
  <ellipse cx="75" cy="85" rx="12" ry="15" fill="#2C2C2C"/>
  <ellipse cx="125" cy="85" rx="12" ry="15" fill="#2C2C2C"/>
  <ellipse cx="77" cy="82" rx="4" ry="5" fill="white"/>
  <ellipse cx="127" cy="82" rx="4" ry="5" fill="white"/>
  <ellipse cx="100" cy="110" rx="15" ry="10" fill="#2C2C2C"/>
  <path d="M80 125 Q100 145 120 125" stroke="#2C2C2C" stroke-width="3" fill="none" stroke-linecap="round"/>
  <ellipse cx="100" cy="135" rx="8" ry="12" fill="#FF6B6B"/>
  <ellipse cx="50" cy="55" rx="22" ry="35" fill="#C4956A" transform="rotate(-25 50 55)"/>
  <ellipse cx="150" cy="55" rx="22" ry="35" fill="#C4956A" transform="rotate(25 150 55)"/>
  <ellipse cx="100" cy="170" rx="35" ry="25" fill="#D4A574"/>
  <ellipse cx="60" cy="200" rx="12" ry="25" fill="#C4956A" transform="rotate(-10 60 200)"/>
  <ellipse cx="140" cy="200" rx="12" ry="25" fill="#C4956A" transform="rotate(10 140 200)"/>
  <ellipse cx="75" cy="210" rx="10" ry="20" fill="#C4956A" transform="rotate(-5 75 210)"/>
  <ellipse cx="125" cy="210" rx="10" ry="20" fill="#C4956A" transform="rotate(5 125 210)"/>
  <text x="100" y="245" text-anchor="middle" font-size="12" fill="#7ED321" font-weight="bold">🎉 Great job!</text>
</svg>
